<svg width="713" height="447" fill="none" xmlns="http://www.w3.org/2000/svg"><path fill-rule="evenodd" clip-rule="evenodd" d="M240.856 19.208c26.316 5.387 51.476 8.148 77.806 10.252 13.165 1.04 26.624 1.9 40.652 2.72 14.029.82 28.641 1.598 44.067 2.42 60.035 3.498 135.428 4.035 197.045 9.107 64.652 3.317 105.46 20.785 111.397 59.403 3.466 18.731-1.001 41.593-10.24 64.141a229.97 229.97 0 01-7.621 16.686 263.968 263.968 0 01-8.771 15.965 262.03 262.03 0 01-18.975 27.799c-23.977 35.08-34.28 47.779-32.983 59.88.518 11.566 12.505 22.813 24.604 37.37 13.105 14.457 25.293 31.609 10.338 51.168-7.471 9.707-21.896 19.942-45.854 29.825a361.52 361.52 0 01-43.085 14.292c-8.401 2.265-17.421 4.449-27.06 6.552a645.195 645.195 0 01-14.92 3.045 822.755 822.755 0 01-15.836 2.881 818.75 818.75 0 01-15.726 2.671 880.083 880.083 0 01-16.35 2.43 911.854 911.854 0 01-34.292 4.078c-23.47 2.353-48.029 3.936-72.87 4.662a1048.005 1048.005 0 01-146.509-5.816c-93.125-10.378-164.478-33.344-201.956-57.519-18.496-11.994-28.517-24.032-32.14-35.767a35.162 35.162 0 01-1.545-8.771 33.282 33.282 0 01-.031-2.18c.013-.727.047-1.452.103-2.175.116-1.456.318-2.905.606-4.338a50.168 50.168 0 017.362-17.216C22 289.66 51.942 265.909 69.05 234.354c21.142-29.435 21.3-67.091 18.794-103.078-2.594-36.01-9.749-70.909-7.52-94.787 1.959-24.204 13.02-37.2 41.529-36.453 13.722-.071 31.915 3.298 52.471 7.414 20.556 4.116 43.466 8.89 66.531 11.764l.002-.006z" fill="#F5FBFF"/></svg>