<svg width="68" height="40" fill="none" xmlns="http://www.w3.org/2000/svg"><path d="M13.17.779L.814 20.978l9.169 5.529 1.613-2.635 1.618 1.179a3.151 3.151 0 001.166 4.714c.56.273 1.188.377 1.807.299a3.141 3.141 0 00.099 1.671c.183.538.509 1.018.943 1.388a3.201 3.201 0 003.205.56 3.146 3.146 0 00.398 1.728c.296.527.737.959 1.272 1.245a3.21 3.21 0 003.42-.247c.006.598.182 1.182.509 1.684.326.503.79.904 1.336 1.156a3.212 3.212 0 003.377-.43l2.218-1.815v-.011l2.944 2.101a2.98 2.98 0 004.289-.9c.279-.473.42-1.013.406-1.56a3.21 3.21 0 003.396-.053 3.173 3.173 0 001.157-1.326 3.144 3.144 0 00.267-1.734 3.215 3.215 0 003.129-.763 3.142 3.142 0 00.863-3.08 3.11 3.11 0 002.45-.934 3.06 3.06 0 00.84-2.467l4.079-3.713 1.82 2.891 9.103-5.64L55.892 1.046 46.79 6.688l1.304 2.072-3.795 1.376-5.403-1.916a5.23 5.23 0 00-4.208.319 14.14 14.14 0 00-7.282.221 66.923 66.923 0 01-6.721.247l1.654-2.702L13.17.779zm.396 1.618l7.14 4.302L9.57 24.89l-7.14-4.306L13.566 2.397zm41.948.274L66.069 19.44l-7.086 4.394L48.425 7.065l7.089-4.394zM37.32 9.1a4.07 4.07 0 011.176.23l5.81 2.057 4.433-1.609 7.408 11.768-3.855 3.51a3.072 3.072 0 00-.707-.813L38 13.3a11.84 11.84 0 01-9.017 1.073.816.816 0 01-.595-.75.805.805 0 01.538-.792 25.979 25.979 0 005.946-3.03 4.029 4.029 0 012.447-.7h.001zm-5.893.242a13.2 13.2 0 011.8.121 24.8 24.8 0 01-4.7 2.26 2 2 0 00-.98.756 1.977 1.977 0 00.082 2.339c.262.331.622.571 1.03.687 3.06.862 6.334.576 9.197-.802l12.98 10.456a1.876 1.876 0 01.29 2.59 1.912 1.912 0 01-2.594.404l-9.71-6.922a.598.598 0 00-.825.138.586.586 0 00.133.82l9.37 6.68a1.976 1.976 0 01.414 2.742 2.016 2.016 0 01-2.751.485l-8.848-6.306a.597.597 0 00-.828.136.585.585 0 00.136.822l7.808 5.567a1.993 1.993 0 01.847 1.297 1.974 1.974 0 01-.346 1.507 1.997 1.997 0 01-1.33.806 2.02 2.02 0 01-1.508-.383l-7.345-5.234a.597.597 0 00-.801.152.585.585 0 00.11.803l5.618 4.008a1.754 1.754 0 01.357 2.425 1.79 1.79 0 01-2.43.44l-2.884-2.055a3.145 3.145 0 00-.283-3.464 3.19 3.19 0 00-1.49-1.051 3.214 3.214 0 00-1.826-.067 3.142 3.142 0 00-.883-2.574 3.214 3.214 0 00-2.569-.945 3.143 3.143 0 00-.135-1.947 3.171 3.171 0 00-1.26-1.497 3.21 3.21 0 00-3.734.24l-.212.177a3.149 3.149 0 00-.51-1.681 3.184 3.184 0 00-1.335-1.154 3.212 3.212 0 00-3.373.427l-2.044 1.674-1.865-1.358 7.773-12.69a68.14 68.14 0 007.662-.251 12.94 12.94 0 013.796-.578h-.004zm-13.415 13.67a2.013 2.013 0 011.317.395 1.973 1.973 0 01.084 3.114l-2.366 1.937a2.014 2.014 0 01-2.769-.309 1.978 1.978 0 01.22-2.756l2.364-1.94a2.02 2.02 0 011.153-.441h-.003zm5.46 2.222c.42-.02.836.091 1.188.319a1.973 1.973 0 01.183 3.2l-4.274 3.5a2.014 2.014 0 01-2.806-.277 1.977 1.977 0 01.255-2.787l4.274-3.501a2.013 2.013 0 011.18-.454zm3.358 3.922c.42-.022.837.087 1.19.313a1.973 1.973 0 01.202 3.198l-3.343 2.74a2.015 2.015 0 01-2.821-.268 1.978 1.978 0 01.27-2.8l3.344-2.737a2.013 2.013 0 011.158-.445zm4.152 3.434a2.01 2.01 0 011.117.393c.324.24.567.57.697.95a1.973 1.973 0 01-.605 2.164l-2.216 1.815a2.014 2.014 0 01-2.8-.283 1.978 1.978 0 01.249-2.782l2.219-1.815a2.012 2.012 0 011.341-.442h-.002zM3.031 17.335L13.17.778 3.03 17.335z" fill="#211347"/></svg>