<svg version="1.2" xmlns="http://www.w3.org/2000/svg" width="49" height="45"><style>.s0{fill:#fff}</style><path id="Layer" fill-rule="evenodd" class="s0" d="M0 25.9V8.2c0-.4.4-.8.8-.8h9.3c.7-4 6.7-7 14.1-7 7.4 0 13.3 3 14 7h9.3c.5 0 .8.4.8.8v17.7c0 .5-.3.8-.8.8h-2.4v17c0 .4-.3.7-.8.7H4c-.4 0-.8-.3-.8-.7v-17H.8c-.4 0-.8-.3-.8-.8zm43.5.8H27.7V28c0 1.9-1.6 3.5-3.5 3.5-1 0-1.8-.4-2.5-1-.7-.7-1-1.6-1-2.5v-1.3H4.8v16.2h38.7zm-20.7 2.6c.4.3.9.5 1.4.5 1 0 1.9-.8 1.9-1.8v-4.3c-.1-.5-.3-.9-.6-1.2-.3-.4-.8-.6-1.3-.6-1.1 0-1.9.9-1.9 1.9V28c0 .5.2.9.5 1.3zm-11-21.9h24.8c-.9-3-6.2-5.5-12.4-5.5-6.3 0-11.6 2.5-12.4 5.5zM1.6 25.1h19.1v-1.3c0-1.9 1.5-3.4 3.5-3.4.9 0 1.8.3 2.5 1 .6.6.9 1.4 1 2.2v1.5h19V9H1.6z"/><path id="Layer" class="s0" d="M3.3 5.8c0-.4.3-.8.8-.8h4.5c.5 0 .8.4.8.8 0 .5-.3.8-.8.8H4.1c-.5 0-.8-.3-.8-.8zm35.6 0c0-.4.4-.8.8-.8h4.6c.4 0 .8.4.8.8 0 .5-.4.8-.8.8h-4.6c-.4 0-.8-.3-.8-.8z"/></svg>