<svg version="1.2" xmlns="http://www.w3.org/2000/svg" width="68" height="40"><path fill-rule="evenodd" d="M22.3 6.3L20.7 9q3.4.1 6.7-.2c2.4-.7 4.9-.8 7.3-.3q1-.5 2.1-.6 1.1 0 2.1.3l5.4 1.9 3.8-1.3-1.3-2.1L55.9 1l11.8 18.8-9.1 5.7-1.8-2.9-4.1 3.7q.1.7-.1 1.3-.3.7-.7 1.1-.5.5-1.2.8-.6.2-1.3.2.2.8 0 1.6-.2.9-.8 1.5-.7.6-1.5.8-.8.2-1.7-.1c.1.6 0 1.2-.2 1.8-.3.5-.7 1-1.2 1.3-.5.3-1.1.5-1.7.5-.6 0-1.2-.2-1.7-.5q0 .9-.4 1.6-.4.7-1.2 1.1c-.5.3-1 .4-1.6.3-.5 0-1-.2-1.5-.5L33 37l-2.3 1.8c-.4.4-1 .6-1.6.7-.6.1-1.2 0-1.7-.3-.6-.2-1-.6-1.4-1.1-.3-.5-.5-1.1-.5-1.7-.5.4-1 .6-1.6.6-.7.1-1.3-.1-1.8-.3-.5-.3-1-.8-1.3-1.3-.3-.5-.4-1.1-.4-1.7q-.8.3-1.6.1-.9-.1-1.6-.7-.6-.5-.9-1.4-.3-.8-.1-1.6c-.6 0-1.3-.1-1.8-.3-.6-.3-1-.7-1.4-1.3-.3-.5-.4-1.1-.4-1.7 0-.7.2-1.3.6-1.7l-1.6-1.2-1.6 2.6L.8 21 13.2.8zM2.4 20.6l7.1 4.3L20.6 6.7l-7.1-4.3zm46-13.5L59 23.8l7-4.4L55.5 2.7zm-11.1 2c-.9 0-1.8.2-2.5.7q-2.7 1.9-5.9 3-.3.1-.4.3-.2.3-.2.5.1.3.2.5.2.2.4.3c1.5.4 3.1.5 4.7.3 1.5-.2 3-.6 4.4-1.4l13.5 10.9q.5.4.8.9l3.8-3.6-7.4-11.7-4.4 1.6-5.8-2.1q-.6-.2-1.2-.2zm-5.9.2q-2 0-3.8.6-3.8.4-7.7.3l-7.7 12.7 1.8 1.3 2.1-1.7c.4-.3 1-.6 1.6-.7.6 0 1.2.1 1.7.3.6.3 1.1.7 1.4 1.2.3.5.5 1.1.5 1.6l.2-.1c.5-.5 1.2-.7 1.8-.7.7-.1 1.4.1 1.9.4.6.4 1 .9 1.3 1.5.2.6.3 1.3.1 2q.7-.1 1.4.2.7.2 1.2.7.5.5.7 1.2.3.7.2 1.4c.6-.2 1.2-.1 1.8.1.6.2 1.1.5 1.5 1 .4.5.6 1.1.7 1.7 0 .6-.1 1.2-.4 1.8l2.9 2c.3.3.8.4 1.3.3.4-.1.8-.3 1.1-.7.3-.4.4-.8.3-1.3-.1-.4-.3-.9-.7-1.1l-5.6-4q-.2-.2-.2-.4 0-.3.1-.4.1-.2.4-.3.2 0 .4.1l7.4 5.2q.3.3.7.4.4.1.8 0 .4 0 .7-.3.4-.2.6-.5.2-.3.3-.7.1-.4 0-.8 0-.4-.3-.7-.2-.4-.5-.6l-7.8-5.6q-.2-.1-.3-.3 0-.3.1-.5.2-.2.4-.2.3-.1.5.1l8.8 6.3c.5.3 1 .4 1.5.3.5-.1 1-.4 1.3-.8.3-.4.4-.9.3-1.4 0-.6-.3-1-.7-1.3l-9.4-6.7q-.2-.2-.2-.4-.1-.2.1-.4.1-.2.3-.3.3 0 .5.1l9.7 6.9c.4.3.9.4 1.4.4.5-.1.9-.4 1.2-.8.3-.3.4-.8.4-1.3-.1-.5-.3-.9-.7-1.2l-13-10.5c-2.8 1.4-6.1 1.7-9.2.8q-.6-.2-1-.7-.4-.5-.4-1.1-.1-.7.3-1.2.4-.6 1-.8 2.5-.9 4.7-2.2-.9-.2-1.8-.2zM16.8 23.4l-2.3 2c-.4.3-.7.8-.7 1.3-.1.5.1 1 .4 1.4.4.4.8.7 1.4.8.5 0 1-.1 1.4-.4l2.4-2q.4-.4.6-1 .2-.6 0-1.1-.2-.6-.7-1-.5-.4-1.1-.4H18q-.7 0-1.2.4zM18 23zm4.2 2.7L18 29.2c-.4.3-.7.8-.7 1.3-.1.5.1 1.1.4 1.5.4.4.8.6 1.4.7.5 0 1-.1 1.4-.5l4.3-3.5q.5-.4.7-1 .1-.6-.1-1.2t-.8-1q-.5-.3-1.2-.3c-.4 0-.8.2-1.2.5zm4.6 3.4q-.7.1-1.2.5l-3.3 2.7c-.4.4-.7.9-.7 1.4-.1.5.1 1 .4 1.4.4.4.8.7 1.4.7.5.1 1-.1 1.4-.4l3.4-2.7q.5-.5.6-1.1.2-.6 0-1.2-.3-.6-.8-.9-.6-.4-1.2-.4zm4.1 3.5h-.2q-.6 0-1.1.4l-2.2 1.8c-.4.4-.7.9-.7 1.4-.1.5.1 1 .4 1.4.4.4.8.7 1.4.7.5.1 1-.1 1.4-.4l2.2-1.8q.5-.4.7-1 .1-.6 0-1.2-.3-.6-.7-.9-.5-.4-1.2-.4z" fill="#fff"/></svg>