<svg width="49" height="45" fill="none" xmlns="http://www.w3.org/2000/svg"><path d="M.819 26.728h2.416V43.66c0 .435.36.788.805.788h40.266a.797.797 0 00.806-.788V26.73h2.416a.797.797 0 00.805-.788V8.22a.797.797 0 00-.805-.787h-9.341C37.494 3.438 31.594.41 24.173.41c-7.422 0-13.332 3.027-14.024 7.024H.82a.797.797 0 00-.805.788V25.94c0 .434.36.787.805.787zm42.682 16.144H4.846V26.728h15.816v1.292a3.41 3.41 0 001.03 2.435 3.564 3.564 0 002.481 1.006c1.936 0 3.511-1.543 3.511-3.441v-1.292h15.817v16.144zM22.273 28.02v-4.166c0-1.025.852-1.859 1.9-1.859.506 0 .987.194 1.343.537.334.332.53.767.551 1.224.002.039 0 .06.008.098v4.166c0 1.029-.853 1.866-1.9 1.866a1.94 1.94 0 01-1.343-.544 1.852 1.852 0 01-.56-1.322zm1.9-26.035c6.233 0 11.576 2.425 12.379 5.45H11.795c.803-3.025 6.145-5.45 12.378-5.45zM1.624 9.009h45.098v16.144H27.684v-1.3c0-.07-.003-.141-.01-.206a3.416 3.416 0 00-1.02-2.229 3.56 3.56 0 00-2.48-.998c-1.937 0-3.512 1.54-3.512 3.434v1.3H1.624V9.008z" fill="#211347"/><path d="M4.073 6.615h4.564a.797.797 0 00.805-.787.797.797 0 00-.805-.788H4.073a.797.797 0 00-.805.788c0 .435.36.787.805.787zm35.637 0h4.563a.797.797 0 00.806-.787.797.797 0 00-.806-.788H39.71a.797.797 0 00-.806.788c0 .435.361.787.806.787z" fill="#211347"/></svg>