<svg width="556" height="283" fill="none" xmlns="http://www.w3.org/2000/svg"><g opacity=".05"><path d="M600.58 262.547L404.609 20.431c-8.316-10.274-24.134-9.799-31.819.956L196.58 268" stroke="url(#paint0_linear_905_1125)" stroke-width="20" stroke-linecap="round" stroke-linejoin="round"/><path d="M602.58 262.747l-96.374-49.88a20 20 0 00-18.715.174L378.58 272" stroke="url(#paint1_linear_905_1125)" stroke-width="20" stroke-linecap="round" stroke-linejoin="round"/><path fill-rule="evenodd" clip-rule="evenodd" d="M208.49 89.802c-11.821-11.723-30.926-11.58-42.569.32L2.852 256.782c-3.862 3.948-3.793 10.279.154 14.141a10.002 10.002 0 0010.935 2.046 9.947 9.947 0 004.89-.875l87.556-39.925a9.995 9.995 0 019.601.716l71.173 46.296c4.63 3.012 10.824 1.7 13.835-2.929 3.012-4.63 1.7-10.824-2.929-13.836l-71.173-46.297a30.002 30.002 0 00-28.805-2.148l-45.803 20.886 127.93-130.748c3.881-3.967 10.25-4.014 14.19-.107L370.527 278.68c3.921 3.889 10.252 3.863 14.142-.059 3.889-3.921 3.863-10.252-.059-14.142L208.49 89.802z" fill="url(#paint2_linear_905_1125)"/></g><defs><linearGradient id="paint0_linear_905_1125" x1="244.842" y1="227.488" x2="610.701" y2="211.933" gradientUnits="userSpaceOnUse"><stop stop-color="#1B31A6"/><stop offset=".276" stop-color="#1F1CBD"/><stop offset=".473" stop-color="#1B35BD"/><stop offset=".964" stop-color="#1BBDB3"/></linearGradient><linearGradient id="paint1_linear_905_1125" x1="387.913" y1="292.819" x2="625.806" y2="253.611" gradientUnits="userSpaceOnUse"><stop stop-color="#F44335"/><stop offset=".484" stop-color="#F46E35"/><stop offset=".964" stop-color="#F4A835"/></linearGradient><linearGradient id="paint2_linear_905_1125" x1="31.096" y1="266.463" x2="387.545" y2="231.455" gradientUnits="userSpaceOnUse"><stop stop-color="#D31E2C"/><stop offset=".52" stop-color="#E8253F"/><stop offset="1" stop-color="#F74B33"/></linearGradient></defs></svg>