<svg width="30" height="30" fill="none" xmlns="http://www.w3.org/2000/svg"><path fill-rule="evenodd" clip-rule="evenodd" d="M15 1c7.732 0 14 6.268 14 14s-6.268 14-14 14S1 22.732 1 15 7.268 1 15 1z" fill="#fff"/><path fill-rule="evenodd" clip-rule="evenodd" d="M15 2C7.82 2 2 7.82 2 15s5.82 13 13 13 13-5.82 13-13S22.18 2 15 2zM0 15C0 6.715 6.716 0 15 0c8.284 0 15 6.715 15 15s-6.716 15-15 15C6.716 30 0 23.285 0 15z" fill="#C2C2C2"/><path d="M11.26 11.08c0 1.697 1.464 3.078 3.262 3.078s3.26-1.381 3.26-3.079C17.783 9.382 16.32 8 14.523 8c-1.798 0-3.261 1.382-3.261 3.08zM21.045 21v-.684c0-2.64-2.277-4.79-5.073-4.79h-2.899c-2.797 0-5.072 2.15-5.072 4.79V21h13.044z" fill="#96999B"/></svg>