<svg width="23" height="16" fill="none" xmlns="http://www.w3.org/2000/svg"><path d="M22.717 6.848L20.523 4.8 18.577.889A1.861 1.861 0 0016.985 0H6.015a1.85 1.85 0 00-1.592.889L2.477 4.8.283 6.848A.889.889 0 000 7.5v7.611A.888.888 0 00.885 16h3.538c.354 0 .885-.356.885-.711v-1.067h12.384v.89c0 .355.354.888.708.888h3.715c.235 0 .46-.094.626-.26a.891.891 0 00.259-.63V7.5a.893.893 0 00-.283-.653zM6.192 1.778h10.616l1.769 3.555H4.423l1.77-3.555zm.885 8.178c0 .355-.53.71-.885.71H2.477c-.354 0-.708-.533-.708-.888V7.822c.177-.533.531-.889 1.062-.71l3.538.71c.354 0 .708.534.708.89v1.244zm14.154-.178c0 .355-.354.889-.708.889h-3.715c-.354 0-.885-.356-.885-.711V8.71c0-.355.354-.889.708-.889l3.538-.71c.531-.179.885.177 1.062.71v1.956z" fill="#7D798D"/></svg>