<svg width="14" height="14" fill="none" xmlns="http://www.w3.org/2000/svg"><path d="M7 .875a6.125 6.125 0 100 12.25A6.125 6.125 0 007 .876zm0 9.68A.547.547 0 117 9.46a.547.547 0 010 1.094zm.86-3.001a.66.66 0 00-.423.612v.31a.11.11 0 01-.109.11h-.656a.11.11 0 01-.11-.11v-.293a1.528 1.528 0 01.984-1.446c.466-.18.766-.57.766-.995 0-.603-.589-1.094-1.312-1.094-.723 0-1.313.491-1.313 1.094v.104a.11.11 0 01-.109.11h-.656a.11.11 0 01-.11-.11v-.104c0-.537.236-1.039.662-1.412.41-.36.952-.557 1.526-.557.574 0 1.116.199 1.526.557.426.373.662.875.662 1.412 0 .79-.521 1.501-1.328 1.812z" fill="#FC2D2D"/></svg>